<svg xmlns:dc="http://purl.org/dc/elements/1.1/" xmlns:cc="http://creativecommons.org/ns#" xmlns:rdf="http://www.w3.org/1999/02/22-rdf-syntax-ns#" xmlns:svg="http://www.w3.org/2000/svg" xmlns="http://www.w3.org/2000/svg" xmlns:sodipodi="http://sodipodi.sourceforge.net/DTD/sodipodi-0.dtd" xmlns:inkscape="http://www.inkscape.org/namespaces/inkscape" version="1.1" x="0px" y="0px" viewBox="0 0 100 125">
  <g transform="translate(0,-952.36218)">
  <path style="font-size:medium;font-style:normal;
    font-variant:normal;font-weight:normal;font-stretch:normal;text-indent:0; text-align:start;text-decoration:none;line-height:normal;letter-spacing:normal;word-spacing:normal;
    text-transform:none;direction:ltr;block-progression:tb;writing-mode:lr-tb;text-anchor:start;baseline-shift:baseline;opacity:1;color:#000000;fill:#000000;fill-opacity:1;stroke:none;stroke-width:2;marker:none;visibility:visible;display:inline;overflow:visible;enable-background:accumulate;
  font-family:Sans;-inkscape-font-specification:Sans" d="M 36.75 18 A 1.0001 1.0001 0 0 0 35.9375 19 L 35.9375 27.78125 L 8 27.78125 A 1.0001 1.0001 0 0 0 7 28.78125 L 7 81 A 1.0001 1.0001 0 0 0 8 82 L 92 82 A 1.0001 1.0001 0 0 0 93 81 L 93 28.78125 A 1.0001 1.0001 0 0 0 92.1875 27.78125 A 1.0001 1.0001 0 0 0 92 27.78125 L 37.9375 27.78125 L 37.9375 20 L 62.0625 20 L 62.0625 21.9375 A 1.0001 1.0001 0 1 0 64.0625 21.9375 L 64.0625 19 A 1.0001 1.0001 0 0 0 63.0625 18 L 36.9375 18 A 1.0001 1.0001 0 0 0 36.75 18 z M 9 29.78125 L 91 29.78125 L 91 47.4375 L 83.53125 53.875 L 65.65625 53.875 A 1.0001 1.0001 0 1 0 65.65625 55.875 L 83.90625 55.875 A 1.0001 1.0001 0 0 0 84.5625 55.625 L 91 50.09375 L 91 80 L 9 80 L 9 50.15625 L 15.4375 55.65625 A 1.0001 1.0001 0 0 0 16.09375 55.875 L 34.34375 55.875 A 1.0001 1.0001 0 1 0 34.34375 53.875 L 16.46875 53.875 L 9 47.5 L 9 29.78125 z M 41.09375 48.875 A 1.0001 1.0001 0 0 0 40.1875 49.875 L 40.1875 59.875 A 1.0001 1.0001 0 0 0 41.1875 60.875 L 58.8125 60.875 A 1.0001 1.0001 0 0 0 59.8125 59.875 L 59.8125 49.875 A 1.0001 1.0001 0 0 0 58.8125 48.875 L 41.1875 48.875 A 1.0001 1.0001 0 0 0 41.09375 48.875 z M 42.1875 50.875 L 57.8125 50.875 L 57.8125 58.875 L 42.1875 58.875 L 42.1875 50.875 z M 20.8125 71.9375 A 1.0043849 1.0043849 0 0 0 21 73.9375 L 79 73.9375 A 1.0001 1.0001 0 1 0 79 71.9375 L 21 71.9375 A 1.0001 1.0001 0 0 0 20.8125 71.9375 z" transform="translate(0,952.36218)"/>
</g></svg>
