<svg xmlns="http://www.w3.org/2000/svg" xmlns:xlink="http://www.w3.org/1999/xlink" version="1.1" x="0px" y="0px" viewBox="0 0 100 125" enable-background="new 0 0 100 100" xml:space="preserve"><g><g><path d="M76.7,97.4c9,0,16.3-7.3,16.3-16.3c0-9-7.3-16.3-16.3-16.3c-9,0-16.3,7.3-16.3,16.3C60.4,90.1,67.7,97.4,76.7,97.4z     M76.4,70.8c1.3,0,2.4,1.1,2.4,2.4c0,1.3-1.1,2.4-2.4,2.4c-1.3,0-2.4-1.1-2.4-2.4C73.9,71.9,75,70.8,76.4,70.8z M73.3,87.3h1.2    v-6.6h-1.2v-3.3h1.2h3.6h0.6v9.9h1.2v3.3h-1.2h-4.3h-1.2V87.3z"/></g><g><path d="M20.8,43.9c0.6,2,1.6,5.7,4,8c1.8,6.7,7,14.4,15.4,17.3c2,0.7,4.1,1.1,6.2,1.1c2.2,0,4.3-0.4,6.3-1.1    c8.4-3,13.6-10.7,15.4-17.3c2.4-2.2,3.4-6,4-8c0.9-3.2,1.8-7.7-0.6-10.9c-0.1-0.1-0.2-0.2-0.3-0.4c1.3-8.4,0.4-14.7-2.8-18.8    c-1.5-1.9-3.2-3-4.6-3.5C62.7,9,60.8,7.1,58,5.6c-3.3-1.9-7-2.9-11.1-2.9c-0.7,0-1.4,0-2.1,0.1c-1.8,0.1-3.6,0.4-5.4,1    c0,0,0,0,0,0c-1.9,0.7-3.9,1.6-5.7,2.9c-2,1.3-3.9,2.8-5.6,4.6c-3.2,3.3-5.3,7.1-6.3,11.1c-0.8,3-0.8,6.3-0.1,10.2    c-0.1,0.1-0.2,0.2-0.3,0.4C19,36.2,19.9,40.7,20.8,43.9z M26.9,35.1c0.1,0,0.2,0,0.3,0v0c0,0,1.4-19.4,17.1-12.7    c8.2,3.5,14.3,3.3,18.2,2.4c5,3.4,3.5,9.2,3.2,10.1c0,0,0,0.1,0,0.1c0.1,0,0.2,0,0.3,0c1.6,0,3.3,1.3,1.5,7.5    c-1.4,4.9-2.7,6.3-3.6,6.3c-0.9,5.8-5.5,13.2-12.8,15.8c-1.5,0.5-3.1,0.8-4.7,0.8c-1.6,0-3.2-0.3-4.7-0.8    C34.4,62.2,29.9,54.8,29,49c-1-0.1-2.3-1.4-3.6-6.3C23.6,36.3,25.3,35.1,26.9,35.1z"/></g><g><path d="M46.5,97.2c5.1,0,10.1-0.8,14.7-2.3c-3.3-3.7-5.4-8.6-5.4-13.9c0-3.3,0.8-6.4,2.1-9.2c-1.1,0.6-2.4,1.2-3.7,1.6    c-2.5,0.9-5.2,1.4-7.9,1.4c-2.7,0-5.3-0.4-7.8-1.3c-5.2-1.8-9.2-5-12.2-8.7C22.2,67.2,14.7,71.4,7,77.1    C15.8,89.3,30.2,97.2,46.5,97.2z"/></g></g><text x="0" y="115" fill="#000000" font-size="5px" font-weight="bold" font-family="'Helvetica Neue', Helvetica, Arial-Unicode, Arial, Sans-serif">Created by Gregor Cresnar</text><text x="0" y="120" fill="#000000" font-size="5px" font-weight="bold" font-family="'Helvetica Neue', Helvetica, Arial-Unicode, Arial, Sans-serif">from the Noun Project</text></svg>