<svg xmlns="http://www.w3.org/2000/svg" viewBox="0 0 75.1 114.525" x="0px" y="0px">
  <g data-name="Livello 2">
    <g data-name="Livello 5">
      <g data-name="Livello 2">
        <g data-name="Livello 8" class="nav-icons">
        <path d="M67.12,49.61a2.2,2.2,0,0,0-3,.89,2.13,2.13,0,0,0-.27,1v3.37a28,28,0,0,0-20.78-9.45H27.75A27.78,
        27.78,0,0,0,0,73.21v5.41a7.5,7.5,0,0,0,7.49,7.47h45.7v5.49h2.5V77a2.19,2.19,0,0,0-1.29-2,13,13,0,0,
        1-1.23-23V64.26l6.6,3.82,6.6-3.82V52.06A13,13,0,0,1,65.13,75a2.22,2.22,0,0,0-1.26,2V91.62h2.5V77.13a15.49,
        15.49,0,0,0,.75-27.48ZM44.19,63.17a15.48,15.48,0,0,0,9,14v4.89H7.49A3.49,3.49,0,0,1,4,78.62V73.21A23.78,23.78,
        0,0,1,27.75,49.47H43.09a23.26,23.26,0,0,1,7.44,1.23A15.44,15.44,0,0,0,44.19,63.17Zm15.58,2-4.1-2.36V53.13a24.14,
        24.14,0,0,1,8.2,8.63v1Z"/>
        <path d="M35.42,42.14c9.82,0,17.74-11.57,17.74-21.14V17.74a17.74,17.74,0,1,0-35.48,
        0V21C17.69,30.57,25.6,42.14,35.42,42.14ZM21.68,17.74a13.75,13.75,0,0,1,27.49,0V21c0,7.71-6.35,17.14-13.75,
        17.14S21.68,28.71,21.68,21Z"/>
      </g>
    </g>
  </g>
</g>
</svg>
