<svg xmlns="http://www.w3.org/2000/svg" xmlns:xlink="http://www.w3.org/1999/xlink" class="nav-icons"version="1.1" x="0px" y="0px" viewBox="0 0 100 125" style="enable-background:new 0 0 100 100;" xml:space="preserve"><style type="text/css">
	.st0{fill:none;stroke:#000000;stroke-miterlimit:10;}
	.st1{fill:#FFFFFF;}
	.st2{fill:none;}
	.st3{fill:none;stroke:#010101;stroke-miterlimit:10;}
	.st4{fill:#010101;}
	.st5{fill:none;stroke:#000000;stroke-width:1.5;stroke-linecap:square;stroke-miterlimit:10;stroke-dasharray:0,3;}
	.st6{fill:none;stroke:#FFFFFF;stroke-width:0.25;stroke-miterlimit:10;}
	.st7{fill:none;stroke:#000000;stroke-width:2;stroke-miterlimit:10;}
	.st8{fill:none;stroke:#000000;stroke-width:1.2;stroke-miterlimit:10;}
</style><g><path class="st2" d="M33,45.3c0.2,1.4,0.6,2.8,1.2,4.1c0.2,0.4,0.4,0.8,0.6,1.1c0.8,1.4,1.8,2.7,3.1,3.8c6.2,5.5,15.7,4.9,21.1-1.3   c0.7-0.8,1.3-1.6,1.8-2.5c0.2-0.3,0.4-0.7,0.5-1c1.7-3.7,1.9-7.9,0.5-11.6c-0.1-0.3-0.3-0.7-0.4-1c-0.8-1.9-2.1-3.6-3.7-5.1   c-6.2-5.5-15.7-4.9-21.1,1.3c-1,1.1-1.8,2.4-2.4,3.8c-0.1,0.3-0.3,0.7-0.4,1c-0.4,1-0.6,2-0.8,3C32.8,42.4,32.8,43.9,33,45.3z    M53.3,42.1l3,0.1l-0.1,3c-3-0.1,0,0-3-0.1L53.3,42.1z M46.3,41.9l3,0.1l-0.1,3c-3-0.1,0,0-3-0.1L46.3,41.9z M39.3,41.7l3,0.1   l-0.1,3c-3-0.1,0,0-3-0.1L39.3,41.7z"/><path class="st2" d="M9.2,38.4c-0.9,0-1.6,0.7-1.6,1.6v31.8c0,0.9,0.7,1.6,1.6,1.6h4.5L12.8,84c0.1,0.1,0.2,0.1,0.3,0.1l13.8-10.6   h36.5c0.9,0,1.6-0.7,1.6-1.6v-9.6l-2.8-2.4c-8.2,7.2-20.8,7.3-29.2-0.1c-6.2-5.5-8.6-13.7-6.9-21.3H9.2z"/><path class="st2" d="M71.5,49.2l13.8,10.6c0.1,0.1,0.3,0.1,0.3,0l-0.9-10.7h4.5c0.9,0,1.6-0.7,1.6-1.6V15.8c0-0.9-0.7-1.6-1.6-1.6   H35c-0.9,0-1.6,0.7-1.6,1.6v10.7c8.2-7.1,20.7-7.3,29,0.1c6.6,5.8,8.8,14.7,6.6,22.6H71.5z"/><path d="M92.5,47.6V15.8c0-1.9-1.5-3.4-3.4-3.4H35c-1.9,0-3.4,1.5-3.4,3.4v12.3c-0.1,0.1-0.2,0.2-0.3,0.4c-2.1,2.4-3.6,5.2-4.5,8.1   H9.2c-1.9,0-3.4,1.5-3.4,3.4v31.8c0,1.9,1.5,3.4,3.4,3.4h2.6L11,83.8c-0.1,0.8,0.3,1.4,0.9,1.8c0.3,0.2,0.6,0.3,1,0.3   c0.5,0,0.9-0.2,1.2-0.4l13.3-10.3h35.9c1.9,0,3.4-1.5,3.4-3.4v-8l1,0.9l0.4,1.1l17.7,15.5c1.1,1,3.3,0.3,4.4-0.6l0,0l0.2-0.2l0,0   l0,0l0.7-0.8c1-1.1,1.5-3.6,0.3-4.7L74.1,59.4L74,59.3l-1.2-0.2L67,53.9c0.5-1,1-1.9,1.4-2.9h2.5l13.3,10.3   c0.4,0.3,0.8,0.4,1.3,0.4c0.3,0,0.7-0.1,1-0.3c0.6-0.4,1-1,0.9-1.8L86.6,51h2.6C91,51,92.5,49.5,92.5,47.6z M33,41   c0.1-1,0.4-2,0.8-3c0.1-0.3,0.3-0.7,0.4-1c0.6-1.3,1.4-2.6,2.4-3.8c5.5-6.2,14.9-6.8,21.1-1.3c1.6,1.5,2.9,3.2,3.7,5.1   c0.1,0.3,0.3,0.7,0.4,1c1.4,3.7,1.2,7.9-0.5,11.6c-0.2,0.3-0.3,0.7-0.5,1c-0.5,0.9-1.1,1.7-1.8,2.5c-5.5,6.2-15,6.8-21.1,1.3   c-1.3-1.1-2.3-2.4-3.1-3.8c-0.2-0.4-0.4-0.8-0.6-1.1c-0.6-1.3-1-2.7-1.2-4.1C32.8,43.9,32.8,42.4,33,41z M33.1,59.7   c8.4,7.4,20.9,7.3,29.2,0.1l2.8,2.4v9.6c0,0.9-0.7,1.6-1.6,1.6H26.9L13.1,84c-0.1,0.1-0.3,0.1-0.3-0.1l0.9-10.6H9.2   c-0.9,0-1.6-0.7-1.6-1.6V40c0-0.9,0.7-1.6,1.6-1.6h17C24.6,46,26.9,54.2,33.1,59.7z M62.4,26.6c-8.4-7.4-20.8-7.3-29-0.1V15.8   c0-0.9,0.7-1.6,1.6-1.6h54.2c0.9,0,1.6,0.7,1.6,1.6v31.8c0,0.9-0.7,1.6-1.6,1.6h-4.5l0.9,10.7c-0.1,0-0.2,0.1-0.3,0L71.5,49.2H69   C71.2,41.3,68.9,32.5,62.4,26.6z"/><path d="M49.3,42l-3-0.1l-0.1,3c3,0.1,0,0,3,0.1L49.3,42z"/><path d="M42.3,41.8l-3-0.1l-0.1,3c3,0.1,0,0,3,0.1L42.3,41.8z"/><path d="M56.3,42.2l-3-0.1l-0.1,3c3,0.1,0,0,3,0.1L56.3,42.2z"/></g></svg>
