<svg xmlns="http://www.w3.org/2000/svg" xmlns:xlink="http://www.w3.org/1999/xlink" version="1.1" x="0px" y="0px" viewBox="0 0 100 125" enable-background="new 0 0 100 100" xml:space="preserve"><g><path d="M37.969,33.109l19.103,20.138c1.014,1.068,2.465,1.623,3.916,1.623c1.112,0,2.222-0.325,3.132-0.993l28.089-20.652   c0.431-0.316,0.523-0.921,0.208-1.352c-0.319-0.432-0.927-0.522-1.352-0.207L62.976,52.318c-1.319,0.968-3.381,0.783-4.504-0.4   L39.369,31.781c-0.366-0.391-0.979-0.402-1.364-0.036C37.615,32.111,37.601,32.723,37.969,33.109z"/><path d="M94.119,30.161c-0.772-0.947-1.928-1.468-3.251-1.468H40.591c-2.565,0-5.074,2.044-5.592,4.558l-6.817,33.108   c-0.265,1.278,0.021,2.545,0.781,3.479c0.772,0.947,1.927,1.468,3.25,1.468h50.28c2.563,0,5.072-2.044,5.591-4.558L94.9,33.641   C95.168,32.344,94.891,31.107,94.119,30.161z M93.009,33.251l-6.816,33.106c-0.34,1.635-2.032,3.017-3.699,3.017h-50.28   c-0.732,0-1.353-0.268-1.751-0.757s-0.536-1.151-0.389-1.868l6.817-33.108c0.147-0.716,0.563-1.373,1.114-1.896   c0.709-0.674,1.646-1.119,2.586-1.119h50.277c0.732,0,1.354,0.268,1.752,0.757C93.019,31.87,93.156,32.534,93.009,33.251z"/><path d="M15.633,35.924h12.715c0.534,0,0.967-0.432,0.967-0.966s-0.433-0.967-0.967-0.967H15.633c-0.534,0-0.967,0.433-0.967,0.967   S15.099,35.924,15.633,35.924z"/><path d="M25.771,46.878H5.967C5.433,46.878,5,47.311,5,47.845s0.433,0.966,0.967,0.966h19.804c0.534,0,0.967-0.432,0.967-0.966   S26.305,46.878,25.771,46.878z"/><path d="M22.549,58.476h-9.653c-0.534,0-0.966,0.432-0.966,0.966s0.432,0.967,0.966,0.967h9.653c0.534,0,0.967-0.433,0.967-0.967   S23.083,58.476,22.549,58.476z"/></g></svg>
